<?xml version="1.0" encoding="UTF-8" standalone="no"?>
<svg version="1.1" width="143" height="143" viewBox="0 0 143 143" xmlns="http://www.w3.org/2000/svg" xmlns:svg="http://www.w3.org/2000/svg" fill="#ffffff">
<path d="m 137.65266,62.778807 2.96167,2.961666 c 3.18089,3.180899 3.18089,8.338155 0,11.519054 L 77.259527,140.61433 c -3.180899,3.18089 -8.338155,3.18089 -11.519054,0 L 37.849807,112.72366 c -0.782873,-0.78287 -0.782873,-2.05216 0,-2.83504 0.37595,-0.37594 0.885847,-0.58715 1.41752,-0.58715 l 18.707714,2e-5 c 0.590311,0 1.173339,-0.13035 1.707444,-0.38175 L 83.648694,97.639327 c 0.444855,-0.209384 0.802947,-0.566143 1.013112,-1.009343 0.501058,-1.056639 0.04747,-2.31789 -1.013112,-2.817084 L 59.682479,82.532533 c -0.534101,-0.25139 -1.117125,-0.381739 -1.707431,-0.38174 l -47.376683,-2.2e-5 c -2.1266883,-2e-6 -4.1662723,-0.844825 -5.6700677,-2.348621 l -2.542623,-2.542623 c -3.18089905,-3.180899 -3.18089905,-8.338155 0,-11.519054 L 65.740473,2.3856743 c 3.180899,-3.18089905 8.338155,-3.18089905 11.519054,0 L 104.73117,29.857321 c 0.78288,0.782874 0.78288,2.052163 0,2.835036 -0.37594,0.375949 -0.88584,0.587156 -1.41752,0.587155 L 84.605945,33.2795 c -0.59031,0 -1.173338,0.130351 -1.707443,0.381744 L 58.93505,44.940362 c -0.445392,0.209636 -0.803757,0.568001 -1.013393,1.013393 -0.497674,1.057355 -0.04396,2.317956 1.013393,2.815629 l 24.774499,11.660809 48.273041,-6e-6 c 2.12669,-10e-7 4.16627,0.844823 5.67007,2.34862 z M 67.90078,43.200355 81.303195,36.133474 c 0.05364,-0.02828 0.113273,-0.0433 0.173908,-0.04378 0.20952,-0.0017 0.380732,0.166808 0.382412,0.376328 0.0029,0.367714 -0.576594,1.357252 -0.576594,2.289758 0,0.932506 1.576892,3.303311 1.576892,4.078853 0,0.775542 -2.478166,2.754615 -2.478166,4.105424 0,1.350808 2.478166,3.396558 2.478166,4.124201 0,0.727644 -1.576892,2.984153 -1.576892,3.977852 0,0.9937 0.579543,1.593063 0.579543,1.952917 0,0.0696 -0.0156,0.138313 -0.04564,0.201092 -0.11106,0.232049 -0.389205,0.330131 -0.621255,0.219071 l -13.26972,-6.350935 c -1.486347,-0.698131 -2.439868,-2.224053 -2.439868,-3.904527 0,-1.686841 0.93815,-3.225059 2.414799,-3.959373 z m 5.861991,48.774807 c 1.476649,0.734314 2.414799,2.272532 2.414799,3.959373 0,1.680474 -0.953521,3.206396 -2.439867,3.904527 l -13.269719,6.350928 c -0.232049,0.11106 -0.510194,0.013 -0.621254,-0.21907 -0.03005,-0.0628 -0.04564,-0.13149 -0.04564,-0.20109 0,-0.35985 0.579543,-0.95922 0.579543,-1.95292 0,-0.99369 -1.576893,-3.2502 -1.576893,-3.977848 0,-0.727643 2.478167,-2.773393 2.478167,-4.124201 0,-1.350808 -2.478167,-3.329882 -2.478167,-4.105424 0,-0.775542 1.576893,-3.146347 1.576893,-4.078853 0,-0.932506 -0.579543,-1.922044 -0.576595,-2.289758 0.0017,-0.20952 0.172892,-0.378008 0.382412,-0.376328 0.06064,4.87e-4 0.120271,0.0155 0.173909,0.04378 z" />
</svg>
