<svg xmlns="http://www.w3.org/2000/svg" xmlns:xlink="http://www.w3.org/1999/xlink" width="458.25" height="116.837" viewBox="0 0 458.25 116.837"><defs><style>.a,.b{fill:#463f3a;}.a{stroke:#463f3a;stroke-width:0.5px;}.b,.c{fill-rule:evenodd;}.c{fill:url(#a);}</style><linearGradient id="a" y1="0.003" x2="1" y2="0.997" gradientUnits="objectBoundingBox"><stop offset="0" stop-color="#577cb8"/><stop offset="1" stop-color="#173b75"/></linearGradient></defs><g transform="translate(0 0)"><g transform="translate(142.092 0)"><path class="a" d="M46.613,66.027a36.45,36.45,0,0,0-19.041-5.707c-8.879,0-14.7,3.542-14.7,9.446,0,17.909,38.872,8.561,38.773,33.555,0,11.415-10.162,18.795-24.961,18.795A39.471,39.471,0,0,1,.243,111.586l3.552-6.79c6.413,6.1,15.194,9.643,22.988,9.643,9.965,0,16.18-4.034,16.18-10.726.1-18.4-38.773-8.659-38.773-33.358,0-10.824,9.57-17.712,23.876-17.712a40.932,40.932,0,0,1,21.9,6.4ZM58.452,52.939h52.98v7.282H88.839v61.6H80.946v-61.6H58.452ZM174.279,121.82l-7.794-17.614H128.9l-7.7,17.614h-8.386l30.979-68.881h8.189l30.88,68.881Zm-42.128-24.9h31.176L147.64,61.5Zm109.71,12.2V88.167h7v24.994a42.648,42.648,0,0,1-25.652,8.954c-20.028,0-36.011-15.351-36.011-34.736s16.082-34.637,36.405-34.637a39.16,39.16,0,0,1,25.454,9.446L244.524,67.9a31.788,31.788,0,0,0-20.916-7.97c-15.786,0-28.414,12.2-28.414,27.454,0,15.351,12.727,27.552,28.513,27.552A33.088,33.088,0,0,0,241.86,109.126Zm26.145-56.187h46.863v7.282H275.9V83.345h34.827v7.183H275.9v24.01h40.253v7.282H268.005Z" transform="translate(-0.243 -5.528)"/><path class="b" d="M165.221,0a17.958,17.958,0,0,1,12.605,5.17,17.682,17.682,0,0,1,3.867,5.716,17.371,17.371,0,0,1,0,13.488,17.633,17.633,0,0,1-1.753,3.182h0l3.033,3.291-5.481,4.935-7.826-8.491s1.3-1.106,1.775-1.528c.344-.307.591-.553,1.011-.985a10.689,10.689,0,0,0,2.219-3.279,9.968,9.968,0,0,0,0-7.739,10.132,10.132,0,0,0-2.219-3.279,10.3,10.3,0,0,0-14.464,0,10.133,10.133,0,0,0-2.219,3.279,9.968,9.968,0,0,0,0,7.739,10.635,10.635,0,0,0,2.179,3.252c.461.455.838.847.982.977.563.51,1.836,1.563,1.836,1.563h0l-4.9,5.31a17.407,17.407,0,0,1-7.119-8.227,17.371,17.371,0,0,1,0-13.488,17.7,17.7,0,0,1,3.867-5.716A17.961,17.961,0,0,1,165.221,0ZM48.367.7V20.583c.006,2.232.207,6.109,4.237,6.109,4.15,0,4.15-3.627,4.15-6.233V.7H65.1V20.459c0,5.481-1.192,7.912-3.266,10.034a12.218,12.218,0,0,1-9.139,3.535c-2.384,0-6.708-.577-9.4-3.492-2.694-2.963-3.268-5.259-3.268-10.078h0V.7ZM11.414.7,23.555,20.763V.7h7.637V33.327H23.555L11.414,13.881V33.327H3.644V.7ZM83.461.7V33.327H74.985V.7Zm30.726,0V8.019h-8V33.327H97.865V8.019H89.818V.7Zm25.782,0V8.019H128.936v5.423h10.723V20.76H128.936v5.248h11.033v7.318H120.9V.7ZM187.145,0a4.053,4.053,0,0,1,4.035,4.033,4,4,0,0,1-.693,2.253,1.485,1.485,0,0,0,.134.56h-.591a4.066,4.066,0,0,1-6.972-2.812A4.059,4.059,0,0,1,187.145,0Zm.592,4.888h-.628V6.846h-1.542a3.143,3.143,0,0,0,3.442-.213c-.074-.324-.115-.875-.139-1-.042-.287-.133-.74-1.134-.74Zm-.6-4.081a3.2,3.2,0,0,0-3.2,3.226,3.235,3.235,0,0,0,1.59,2.79V1.754h2.686a3.966,3.966,0,0,1,1.346.208A3.118,3.118,0,0,0,187.134.807ZM190.3,3.913l-.01.012a1.762,1.762,0,0,1-.771.5,1.267,1.267,0,0,1,.678.45,3.345,3.345,0,0,0,.106-.837Q190.3,3.973,190.3,3.913Zm-2.278-1.439h-1V4.04h.891c.383,0,1.131-.044,1.131-.847,0-.708-.734-.719-1.092-.719Z" transform="translate(-0.6)"/></g><path class="c" d="M63,1.94l22.4,22.341a1.63,1.63,0,0,1-1.156,2.783H68.985a3.276,3.276,0,0,0-1.392.31L48.054,36.547a1.719,1.719,0,0,0,0,3.114l20.2,9.483h39.36a6.547,6.547,0,0,1,4.623,1.91l2.415,2.409a6.612,6.612,0,0,1,0,9.368L63,114.352a6.654,6.654,0,0,1-9.392,0L30.862,91.67a1.63,1.63,0,0,1,1.156-2.783H47.271a3.276,3.276,0,0,0,1.392-.31L68.2,79.4a1.717,1.717,0,0,0,0-3.112L48.663,67.118a3.276,3.276,0,0,0-1.392-.31H8.642A6.547,6.547,0,0,1,4.018,64.9L1.945,62.83a6.612,6.612,0,0,1,0-9.368L53.6,1.94A6.654,6.654,0,0,1,63,1.94ZM49.074,69.014a.31.31,0,0,1,.142.036L60.144,74.8a3.586,3.586,0,0,1,1.969,3.22,3.5,3.5,0,0,1-1.989,3.175L49.3,86.357a.379.379,0,0,1-.544-.342c0-.293.473-.78.473-1.588s-1.286-2.643-1.286-3.235,2.021-2.255,2.021-3.354S47.947,75.13,47.947,74.5s1.286-2.559,1.286-3.317a10.85,10.85,0,0,0-.47-1.862A.309.309,0,0,1,49.074,69.014Zm17.36-39.665a.309.309,0,0,1,.312.306,10.85,10.85,0,0,0-.47,1.862c0,.758,1.286,2.686,1.286,3.317s-2.021,2.24-2.021,3.339,2.021,2.762,2.021,3.354-1.286,2.427-1.286,3.235.473,1.3.473,1.588a.379.379,0,0,1-.544.342l-10.82-5.165A3.5,3.5,0,0,1,53.4,38.352a3.586,3.586,0,0,1,1.969-3.22l10.928-5.747A.31.31,0,0,1,66.434,29.349Z" transform="translate(0 0)"/></g></svg>